<svg xmlns="http://www.w3.org/2000/svg" viewBox="0 0 240 100" fill="none">
  <g transform="translate(88 2) scale(2)" stroke="#d4c3a3" stroke-width="0.575" stroke-linecap="round" stroke-linejoin="round">
    <path d="M8.5 14.35c0-2.45 3.35-3.95 7.5-3.95s7.5 1.5 7.5 3.95"/>
    <line x1="10.8" y1="12.3" x2="11.5" y2="13.5"/>
    <line x1="13.3" y1="11.4" x2="14.1" y2="12.6"/>
    <line x1="15.2" y1="11.2" x2="16" y2="12.5"/>
    <line x1="17.9" y1="11.4" x2="18.7" y2="12.6"/>
    <line x1="20.5" y1="12.3" x2="21.2" y2="13.5"/>
    <path d="M13.15 28.25V14.5"/>
    <path d="M18.85 28.25V14.5"/>
    <path d="M13.15 14.5c0 1.55 1.2 2.55 2.85 2.55s2.85-1 2.85-2.55"/>
  </g>
  <line x1="60" y1="72" x2="180" y2="72" stroke="#d4c3a3" stroke-width="0.7" opacity="0.5"/>
  <rect x="58" y="70" width="4" height="4" stroke="#d4c3a3" stroke-width="0.7" fill="none" opacity="0.5"/>
  <rect x="178" y="70" width="4" height="4" stroke="#d4c3a3" stroke-width="0.7" fill="none" opacity="0.5"/>
  <text x="120" y="92" text-anchor="middle" fill="#d4c3a3" font-family="Jost, sans-serif" font-size="14" letter-spacing="6" font-weight="500">DUBRAVENKA</text>
</svg>
