<svg xmlns="http://www.w3.org/2000/svg" viewBox="0 0 240 100" fill="none">
  <!-- Steam -->
  <path d="M92 8c0-4 2-6 2-10" stroke="#d4c3a3" stroke-width="1.3" stroke-linecap="round"/>
  <path d="M100 4c0-5 1-7 1-12" stroke="#d4c3a3" stroke-width="1.3" stroke-linecap="round"/>
  <path d="M108 8c0-4-2-6-2-10" stroke="#d4c3a3" stroke-width="1.3" stroke-linecap="round"/>
  <!-- Fork -->
  <line x1="100" y1="20" x2="100" y2="58" stroke="#d4c3a3" stroke-width="1.8" stroke-linecap="round"/>
  <path d="M92 20 L90 30" stroke="#d4c3a3" stroke-width="1.5" stroke-linecap="round"/>
  <path d="M100 20 L100 32" stroke="#d4c3a3" stroke-width="1.5" stroke-linecap="round"/>
  <path d="M108 20 L110 30" stroke="#d4c3a3" stroke-width="1.5" stroke-linecap="round"/>
  <path d="M88 30 Q100 26 112 30" stroke="#d4c3a3" stroke-width="1.5" stroke-linecap="round" fill="none"/>
  <!-- Sausage -->
  <ellipse cx="100" cy="24" rx="14" ry="5" stroke="#d4c3a3" stroke-width="1.5"/>
  <line x1="94" y1="23" x2="96" y2="25" stroke="#d4c3a3" stroke-width="0.8"/>
  <line x1="100" y1="22" x2="102" y2="26" stroke="#d4c3a3" stroke-width="0.8"/>
  <line x1="106" y1="23" x2="104" y2="25" stroke="#d4c3a3" stroke-width="0.8"/>
  <!-- Divider with squares -->
  <line x1="60" y1="72" x2="180" y2="72" stroke="#d4c3a3" stroke-width="0.7" opacity="0.5"/>
  <rect x="58" y="70" width="4" height="4" stroke="#d4c3a3" stroke-width="0.7" fill="none" opacity="0.5"/>
  <rect x="178" y="70" width="4" height="4" stroke="#d4c3a3" stroke-width="0.7" fill="none" opacity="0.5"/>
  <!-- Brand name -->
  <text x="120" y="92" text-anchor="middle" fill="#d4c3a3" font-family="Jost, sans-serif" font-size="14" letter-spacing="6" font-weight="500">DUBRAVENKA</text>
</svg>
