<svg xmlns="http://www.w3.org/2000/svg" viewBox="0 0 32 32" fill="none" stroke="currentColor" stroke-width="1.15" stroke-linecap="round" stroke-linejoin="round">
  <path d="M11 6c0-1.5.6-2.5.6-4"/>
  <path d="M16 3.5c0-2 .4-3.2.4-5"/>
  <path d="M21 6c0-1.5-.6-2.5-.6-4"/>
  <line x1="16" y1="10" x2="16" y2="28"/>
  <path d="M12.5 10 L11.8 15.5"/>
  <path d="M19.5 10 L20.2 15.5"/>
  <path d="M11.5 15.5 Q16 12.5 20.5 15.5"/>
  <path d="M10.5 14.5 Q16 11 21.5 14.5"/>
  <line x1="13" y1="13.8" x2="14.2" y2="14.8"/>
  <line x1="16" y1="13.2" x2="17" y2="15"/>
  <line x1="19" y1="13.8" x2="17.8" y2="14.8"/>
</svg>
