<svg xmlns="http://www.w3.org/2000/svg" viewBox="0 0 200 150" fill="none">
  <defs>
    <linearGradient id="wood" x1="0" y1="0" x2="1" y2="1">
      <stop offset="0%" stop-color="#7a5430"/>
      <stop offset="100%" stop-color="#4a3018"/>
    </linearGradient>
    <linearGradient id="beer" x1="0" y1="0" x2="0" y2="1">
      <stop offset="0%" stop-color="#f0d060"/>
      <stop offset="100%" stop-color="#c49a20"/>
    </linearGradient>
  </defs>
  <rect width="200" height="150" rx="10" fill="#1a1d14"/>
  <ellipse cx="100" cy="100" rx="75" ry="38" fill="url(#wood)"/>
  <g stroke-linecap="round">
    <line x1="55" y1="65" x2="50" y2="88" stroke="#e8c040" stroke-width="2.5"/>
    <line x1="65" y1="62" x2="62" y2="86" stroke="#d4a830" stroke-width="2.2"/>
    <line x1="75" y1="64" x2="73" y2="87" stroke="#e8c040" stroke-width="2.5"/>
    <line x1="85" y1="60" x2="83" y2="85" stroke="#c49a20" stroke-width="2"/>
  </g>
  <circle cx="110" cy="72" r="10" stroke="#d4a040" stroke-width="2" fill="none"/>
  <circle cx="125" cy="68" r="8" stroke="#d4a040" stroke-width="1.8" fill="none"/>
  <rect x="95" y="78" width="22" height="6" rx="2" fill="#f0d050"/>
  <ellipse cx="130" cy="85" rx="10" ry="7" fill="#c49a28"/>
  <circle cx="80" cy="90" r="8" fill="#c0392b" opacity="0.8"/>
  <circle cx="115" cy="92" r="7" fill="#f5c842"/>
  <path d="M155 30 L148 95 L168 95 L161 30Z" fill="url(#beer)"/>
  <ellipse cx="159" cy="32" rx="8" ry="2.5" fill="#f5edd8"/>
</svg>
