<svg xmlns="http://www.w3.org/2000/svg" viewBox="0 0 80 80" fill="none">
  <defs>
    <radialGradient id="lettuce" cx="50%" cy="50%" r="50%">
      <stop offset="0%" stop-color="#5a9a40"/>
      <stop offset="100%" stop-color="#3a7030"/>
    </radialGradient>
  </defs>
  <rect width="80" height="80" rx="10" fill="#1a1d14"/>
  <ellipse cx="40" cy="50" rx="24" ry="14" fill="url(#lettuce)" opacity="0.6"/>
  <!-- Romaine leaves -->
  <path d="M20 48 Q30 30 40 44 Q50 30 60 48" stroke="#4a8a38" stroke-width="2" fill="none"/>
  <path d="M24 52 Q34 38 42 50" stroke="#5a9a40" stroke-width="1.5" fill="none" opacity="0.7"/>
  <!-- Chicken strips -->
  <rect x="28" y="36" width="22" height="7" rx="3" fill="#d4a060" transform="rotate(-10 39 39)"/>
  <rect x="32" y="42" width="18" height="6" rx="2.5" fill="#c49050" transform="rotate(5 41 45)"/>
  <!-- Croutons -->
  <rect x="48" y="38" width="8" height="6" rx="1.5" fill="#c49a30" transform="rotate(15 52 41)"/>
  <rect x="22" y="42" width="7" height="5" rx="1" fill="#b88a28" transform="rotate(-20 25 44)"/>
  <!-- Parmesan -->
  <circle cx="38" cy="46" r="1" fill="#f0e8d0" opacity="0.7"/>
  <circle cx="44" cy="48" r="0.8" fill="#f0e8d0" opacity="0.6"/>
</svg>
