<svg xmlns="http://www.w3.org/2000/svg" viewBox="0 0 80 80" fill="none">
  <defs>
    <radialGradient id="lettuce" cx="50%" cy="50%" r="50%">
      <stop offset="0%" stop-color="#5a9a40"/>
      <stop offset="100%" stop-color="#3a7030"/>
    </radialGradient>
    <linearGradient id="shrimp" x1="0" y1="0" x2="1" y2="1">
      <stop offset="0%" stop-color="#f0a080"/>
      <stop offset="100%" stop-color="#d07050"/>
    </linearGradient>
  </defs>
  <rect width="80" height="80" rx="10" fill="#1a1d14"/>
  <ellipse cx="40" cy="50" rx="24" ry="14" fill="url(#lettuce)" opacity="0.55"/>
  <path d="M20 48 Q30 32 40 44 Q50 32 60 48" stroke="#4a8a38" stroke-width="2" fill="none"/>
  <!-- Shrimp -->
  <path d="M28 40 Q34 30 40 40 Q38 46 32 44 Q28 44 28 40Z" fill="url(#shrimp)"/>
  <path d="M42 38 Q48 28 54 38 Q52 44 48 44 Q42 42 42 38Z" fill="#e89070"/>
  <path d="M34 48 Q40 38 46 48 Q44 54 40 52 Q34 50 34 48Z" fill="url(#shrimp)"/>
  <!-- Croutons -->
  <rect x="48" y="42" width="7" height="5" rx="1" fill="#c49a30" transform="rotate(12 51 44)"/>
</svg>
