<svg xmlns="http://www.w3.org/2000/svg" viewBox="0 0 80 80" fill="none">
  <defs>
    <linearGradient id="shrimp" x1="0" y1="0" x2="1" y2="1">
      <stop offset="0%" stop-color="#f0a080"/>
      <stop offset="100%" stop-color="#d07050"/>
    </linearGradient>
  </defs>
  <rect width="80" height="80" rx="10" fill="#1a1d14"/>
  <!-- Shrimp bodies -->
  <path d="M22 50 Q30 30 38 50 Q34 56 28 54 Q24 54 22 50Z" fill="url(#shrimp)"/>
  <path d="M36 48 Q44 28 52 46 Q50 54 44 54 Q38 54 36 48Z" fill="#e89070"/>
  <path d="M48 50 Q56 32 62 48 Q60 56 54 56 Q48 54 48 50Z" fill="url(#shrimp)"/>
  <!-- Tails -->
  <path d="M20 50 L14 46 L16 52Z" fill="#d08060"/>
  <path d="M62 48 L68 44 L66 52Z" fill="#d08060"/>
  <!-- Breading texture -->
  <circle cx="30" cy="42" r="1" fill="#f0c0a0" opacity="0.5"/>
  <circle cx="44" cy="40" r="0.8" fill="#f0c0a0" opacity="0.4"/>
  <circle cx="54" cy="44" r="0.9" fill="#f0c0a0" opacity="0.4"/>
</svg>
