<svg xmlns="http://www.w3.org/2000/svg" viewBox="0 0 24 24" fill="none" stroke="currentColor" stroke-width="1.15" stroke-linecap="round" stroke-linejoin="round">
  <path d="M12 2.75 13.58 4.06 15.54 3.45 16.5 5.27 18.54 5.46 18.73 7.5 20.55 8.46 19.94 10.42 21.25 12 19.94 13.58 20.55 15.54 18.73 16.5 18.54 18.54 16.5 18.73 15.54 20.55 13.58 19.94 12 21.25 10.42 19.94 8.46 20.55 7.5 18.73 5.46 18.54 5.27 16.5 3.45 15.54 4.06 13.58 2.75 12 4.06 10.42 3.45 8.46 5.27 7.5 5.46 5.46 7.5 5.27 8.46 3.45 10.42 4.06Z"/>
  <line x1="9.5" y1="14.4" x2="14.5" y2="9.6"/>
  <circle cx="9.8" cy="10.4" r="0.9"/>
  <circle cx="14.2" cy="13.6" r="0.9"/>
</svg>
