<svg xmlns="http://www.w3.org/2000/svg" viewBox="0 0 48 48" fill="none" stroke="#d4c3a3" stroke-width="1.1" stroke-linecap="round" stroke-linejoin="round">
  <!-- Mug body -->
  <path d="M10 16 h14 v18 a3 3 0 0 0 3 3 h0 a3 3 0 0 0 3-3 V16"/>
  <ellipse cx="20" cy="16" rx="8" ry="2.5"/>
  <!-- Handle -->
  <path d="M27 20 h4 a3 3 0 0 1 3 3 v6 a3 3 0 0 1-3 3 h-4"/>
  <!-- Foam -->
  <path d="M14 12 c0-2 2-4 6-4 s6 2 6 4" fill="#d4c3a3" opacity="0.15" stroke="none"/>
  <path d="M14 10 c0-3 3-5 6-5 s6 2 6 5" fill="none"/>
  <circle cx="17" cy="11" r="1.5" fill="#d4c3a3" stroke="none" opacity="0.4"/>
  <circle cx="22" cy="9" r="1.2" fill="#d4c3a3" stroke="none" opacity="0.35"/>
  <circle cx="24" cy="12" r="1" fill="#d4c3a3" stroke="none" opacity="0.3"/>
</svg>
